<svg width="83" height="83" fill="none" xmlns="http://www.w3.org/2000/svg"><g clip-path="url(#a)" fill="#000"><path d="M41.5 83C18.617 83 0 64.383 0 41.5S18.617 0 41.5 0 83 18.617 83 41.5 64.383 83 41.5 83Zm0-81.21C19.602 1.79 1.79 19.606 1.79 41.5S19.604 81.21 41.5 81.21c21.898 0 39.71-17.815 39.71-39.71S63.394 1.79 41.5 1.79Z"/><path d="M46.779 41.892c-4.186 1.166-14.48-.938-22.562-3.613.102.015.2.03.31.044l.36.044h.027c.293 0 .534-.218.556-.48a.546.546 0 0 0-.475-.637l-.29-.041c-.177-.025-.34-.048-.47-.063a.557.557 0 0 0-.435.106.53.53 0 0 0-.212.357.55.55 0 0 0 .224.536c-.255-.088-.51-.173-.761-.26-4.613-1.593-12.838-.67-12.915-.66a.753.753 0 0 0-.512.283.762.762 0 0 0 .118 1.09.777.777 0 0 0 .575.163c.076-.01 8.059-.855 12.23.591 7.74 2.675 16.048 4.406 21.162 4.406 1.393 0 2.567-.131 3.486-.389.401-.112.64-.535.53-.946a.774.774 0 0 0-.947-.531ZM10.03 25.75l.092.021c1.909.457 6.775 1.521 10.717 1.521.874 0 1.69-.056 2.432-.166 1.62-.271 3.828-.419 6.165-.574l.342-.023c3.955-.268 8.44-.57 11.336-1.554.353-.123.921-.339 1.64-.623l.126-.05c1.822-.705 4.575-1.772 7.536-2.662 5.694-1.724 11.296-.824 11.363-.811a.768.768 0 0 0 .243-1.517c-.243-.042-6.001-.977-12.062.857-2.88.872-5.547 1.882-7.78 2.756-.809.327-1.276.506-1.572.6-2.758.937-7.18 1.224-11.083 1.479-2.548.168-4.8.33-6.517.61-4.292.724-12.523-1.318-12.606-1.339a.748.748 0 0 0-.573.073.767.767 0 0 0-.359.471.748.748 0 0 0 .56.932Z"/><path d="M73.382 47.773a.76.76 0 0 0-.514-.278.768.768 0 0 0-.84.695c-.003.037-.42 3.965-2.248 6.156-2.938 3.536-8.489 3.393-12.348 2.196-2.93-.922-5.221-2.542-5.337-3.777-.064-.664-.133-1.343-.204-2.027-.66-6.485-2.654-11.608-5.658-17.783a.795.795 0 0 0-1.035-.34.784.784 0 0 0-.345 1.027c2.92 5.986 4.862 10.962 5.517 17.251.067.658.131 1.308.193 1.95 0 .017-.006.034-.004.053.004.047.017.097.023.145.513 5.358.826 9.966.836 10.195.021.408.36.726.77.726h.042a.76.76 0 0 0 .529-.25.794.794 0 0 0 .197-.582c-.004-.036-.017-.218-.04-.525-.078-1.092-.265-3.696-.55-6.916 1.121.91 2.704 1.722 4.607 2.311 1.772.554 3.652.849 5.433.849.684 0 1.336-.041 1.935-.124 2.775-.36 5.061-1.532 6.611-3.391 2.175-2.608 2.596-6.964 2.598-7a.767.767 0 0 0-.168-.561ZM36.053 38.306a.555.555 0 0 0-.6.509.56.56 0 0 0 .51.61l1.617.118h.012a.56.56 0 0 0 .413-.176.466.466 0 0 0 .133-.343.553.553 0 0 0-.51-.6l-1.575-.118ZM39.977 38.593c-.253-.017-.51-.031-.789-.052a.575.575 0 0 0-.572.548c0 .299.224.546.525.572l.257.02c.459.032.9.064 1.36.086h.012a.558.558 0 0 0 .412-.182.504.504 0 0 0 .135-.366.572.572 0 0 0-.525-.572 45.29 45.29 0 0 0-.815-.054ZM43.959 39.923c.3 0 .547-.245.545-.521a.556.556 0 0 0-.143-.42.533.533 0 0 0-.384-.178h-.002c-.47-.027-1.008-.052-1.57-.076a.569.569 0 0 0-.395.124.596.596 0 0 0-.205.421c0 .3.224.546.533.573.575.027 1.11.052 1.606.079l.006-.116v.116h.008v-.002ZM33.652 38.107a52.984 52.984 0 0 0-.751-.062.56.56 0 1 0-.102 1.116c.25.02.498.04.75.063.275.025.551.048.854.07h.027c.284 0 .53-.22.558-.508a.565.565 0 0 0-.51-.612 34.621 34.621 0 0 1-.826-.067ZM29.724 37.759a.565.565 0 0 0-.612.506c-.027.31.2.583.51.612.422.031.853.073 1.3.116l.331.027a.564.564 0 0 0 .559-.506.562.562 0 0 0-.51-.612 57.958 57.958 0 0 1-1.578-.143ZM27.08 37.487l-.532-.056a.56.56 0 0 0-.11 1.116l.485.054c.349.04.72.081 1.129.118h.027a.558.558 0 0 0 .43-.919.551.551 0 0 0-.37-.197c-.367-.044-.722-.08-1.058-.116Z"/><path d="M45.515 39.975c.278.012.546.012.799.012a.56.56 0 0 0 0-1.12c-.118 0-.24-.002-.365-.006a13.636 13.636 0 0 0-.42-.007.56.56 0 0 0-.014 1.12ZM60.604 49.178c-.278.323-.43.753-.43 1.213 0 .884.596 1.779 1.733 1.779 1.133 0 1.727-.897 1.727-1.783a1.84 1.84 0 0 0-.43-1.21c-.317-.369-.765-.564-1.299-.564-.53-.002-.981.193-1.3.565Z"/></g><defs><clipPath id="a"><path fill="#fff" d="M0 0h83v83H0z"/></clipPath></defs></svg>