<svg width="83" height="83" fill="none" xmlns="http://www.w3.org/2000/svg"><g clip-path="url(#a)" fill="#000"><path d="M41.5 83C18.617 83 0 64.383 0 41.5S18.617 0 41.5 0 83 18.617 83 41.5 64.383 83 41.5 83Zm0-81.21C19.605 1.79 1.79 19.606 1.79 41.5S19.606 81.21 41.5 81.21 81.21 63.394 81.21 41.5 63.394 1.79 41.5 1.79Z"/><path d="m25.82 69.656-.922-.758c.052-.064 5.225-6.42 5.225-10.547 0-6.356-2.156-10.035-4.652-14.295-1.735-2.96-3.702-6.318-5.049-10.962-3.042-10.487-3.295-19.038-3.297-19.123l1.193-.031c.002.083.253 8.49 3.25 18.822 1.305 4.5 3.15 7.648 4.932 10.69 2.477 4.227 4.816 8.22 4.816 14.899 0 4.555-5.273 11.03-5.497 11.305Z"/><path d="M37.605 58.857c-.39-2.35-1.622-4.641-3.378-6.289-.88-.826-1.805-1.604-2.7-2.36-2.653-2.236-5.397-4.548-7.31-8.324l1.065-.538c1.8 3.56 4.332 5.692 7.013 7.95.907.763 1.845 1.554 2.748 2.4a12.382 12.382 0 0 1 3.739 6.966l-1.177.195ZM49.26 43.27c-1.925-4.68-5.102-6.383-6.031-6.796-3.154-1.398-5.77-3.197-5.88-3.272l.678-.981c.025.018 2.64 1.813 5.685 3.164 1.031.456 4.555 2.343 6.65 7.43l-1.101.455ZM49.304 62.462l-1.135-.366c.24-.746.515-1.423.78-2.079.84-2.073 1.71-4.216 1.71-9.09h1.193c0 5.108-.915 7.362-1.799 9.54-.268.665-.523 1.291-.749 1.995ZM52.014 27.19c-.496 0-.824-.037-.867-.04l.143-1.185c.03.004 2.959.327 4.619-1.181.796-.724 1.187-1.785 1.157-3.152-.058-2.826-.628-4.034-.8-4.337l1.035-.593c.564.987.915 2.774.959 4.903.035 1.73-.486 3.098-1.555 4.065-1.45 1.313-3.53 1.52-4.691 1.52ZM53.12 37.008c-.41 0-.689-.02-.722-.021l.079-1.191c.023 0 2.303.145 3.565-.438 1.4-.645 2.236-2.131 2.236-3.976 0-1.992-.514-2.88-.93-3.596l-.082-.145 1.035-.591.081.14c.46.795 1.09 1.883 1.09 4.194 0 2.287-1.123 4.225-2.93 5.06-1.048.483-2.542.563-3.422.563ZM57.443 46.428l-.5-1.083c1.126-.519 2.942-3.444 1-8.746l1.12-.411c2.052 5.598.288 9.358-1.62 10.24ZM63.225 46.397l-.614-1.023c.99-.594 3.075-4.461 1.042-11.666l1.149-.323c2.007 7.117.286 11.893-1.577 13.012Z"/><path d="m61.907 35.364-.385-1.129c1.384-.475 2.238-1.162 2.517-3.274.28-2.143-.11-3.17-.422-3.994l-.062-.166 1.118-.417.06.16c.343.898.81 2.128.49 4.57-.38 2.866-1.817 3.735-3.316 4.25ZM61.24 26.902c-.461 0-.893-.062-1.26-.164l.318-1.151c.763.21 1.998.203 2.965-.51.87-.642 1.336-1.698 1.382-3.14.116-3.662-.03-4.636-.496-5.54l1.06-.548c.616 1.193.747 2.453.629 6.127-.073 2.275-1.054 3.463-1.866 4.061-.86.635-1.85.865-2.733.865ZM62.736 69.504l-1.102-.459c.04-.097 3.998-9.872 1.793-24.356l1.178-.178c2.26 14.836-1.7 24.586-1.87 24.993ZM61.389 47.932h-1.193v1.882h1.193v-1.882Z"/><path d="M49.452 65.923c-.642 0-1.306-.015-1.99-.046-10.988-.494-16.851-4.737-17.096-4.918l.707-.96c.058.041 5.846 4.21 16.44 4.685 10.577.473 15.847-3.13 15.9-3.167l.686.976c-.21.15-4.978 3.43-14.647 3.43Z"/><path d="M48.153 69.25c-.656 0-1.333-.014-2.028-.045-11.153-.494-17.106-4.735-17.353-4.915l.701-.965c.058.041 5.939 4.212 16.706 4.69 10.757.474 16.797-3.159 16.857-3.196l.627 1.014c-.238.148-5.64 3.418-15.51 3.418ZM44.428 27.253c-1.399 0-3.335-1.131-6.613-3.82-2.13-1.747-3.026-3.071-2.741-4.044l1.145.334c-.052.18.268 1.079 2.353 2.789 1.998 1.639 4.795 3.786 6.092 3.527.19-.037.47-.147.73-.643.285-.544.2-1.185-.255-1.91l1.011-.634c.687 1.093.79 2.164.3 3.098-.366.701-.887 1.125-1.55 1.257-.15.031-.308.046-.472.046ZM44.457 32.968c-1.353 0-3.256-.924-6.458-3.099-2.782-1.888-2.787-2.803-2.788-3.104a1.057 1.057 0 0 1 .475-.896l.68.98a.134.134 0 0 0 .038-.09c.008.168.43.878 2.265 2.123 2.167 1.471 4.817 3.125 6.084 2.863.283-.058.49-.211.67-.496.123-.193.252-.512-.045-1.052l1.044-.579c.435.787.438 1.592.01 2.268-.353.557-.834.9-1.436 1.025-.17.038-.35.056-.54.056ZM26.99 27.068l-.862-.826c3.478-3.629 2.575-12.367 2.567-12.454l1.187-.128c.04.381.965 9.383-2.893 13.408Z"/></g><defs><clipPath id="a"><path fill="#fff" d="M0 0h83v83H0z"/></clipPath></defs></svg>