<svg width="84" height="83" fill="none" xmlns="http://www.w3.org/2000/svg"><g clip-path="url(#a)" fill="#000"><path d="M42 83C18.841 83 0 64.383 0 41.5S18.841 0 42 0s42 18.617 42 41.5S65.159 83 42 83Zm0-81.21C19.84 1.79 1.81 19.606 1.81 41.5S19.84 81.21 42 81.21c22.16 0 40.19-17.812 40.19-39.71S64.16 1.79 42 1.79Z"/><path d="M20.861 25.271c.595 2.957 1.388 4.985 2.356 6.024a.901.901 0 0 0 .662.284.897.897 0 0 0 .609-.234.883.883 0 0 0 .052-1.253c-.73-.785-1.392-2.573-1.915-5.17-.85-4.22-1.064-9.142-1.075-10.229a.878.878 0 0 0-.267-.624c-.17-.166-.388-.233-.636-.256a.895.895 0 0 0-.89.893h.002c.008 1.133.226 6.233 1.102 10.566ZM19.98 36.051c.337.129.686-.068 1.018-.257.241-.137.491-.278.695-.278.195 0 .407.139.611.274.218.143.458.3.72.3a.632.632 0 0 0 .225-.04c.716-.269 1.128-.75 1.128-1.323 0-.572-.412-1.054-1.128-1.321-.907-.339-2.36-.339-3.27 0-.716.267-1.127.749-1.127 1.321-.003.575.41 1.056 1.127 1.324ZM17.833 40.954a.9.9 0 0 0 .37.343l.06.027a.917.917 0 0 0 .69 0l.058-.027a.911.911 0 0 0 .372-.343c1.218-2.029 2.564-1.348 4.126-.556.994.505 2.02 1.023 3.125 1.027h.004a.9.9 0 0 0 .632-.257.876.876 0 0 0 .265-.627.892.892 0 0 0-.892-.89h-.003c-.674-.002-1.503-.421-2.316-.832-1.806-.915-3.843-1.946-5.716.164-1.875-2.11-3.912-1.077-5.718-.16-.805.407-1.636.828-2.315.83a.897.897 0 0 0-.634.262.88.88 0 0 0 .005 1.253c.17.166.392.257.632.257h.002c1.108-.006 2.133-.525 3.127-1.029 1.627-.822 2.91-1.469 4.126.558ZM13.75 36.122a.62.62 0 0 0 .217.039c.27 0 .525-.176.773-.349.214-.149.455-.317.649-.317.193 0 .434.168.649.317.31.218.634.442.986.31.717-.268 1.128-.75 1.128-1.322 0-.573-.411-1.054-1.128-1.322-.907-.338-2.364-.338-3.271 0-.716.268-1.128.75-1.128 1.322-.004.573.407 1.054 1.126 1.322ZM24.238 45.89a.88.88 0 0 0 .366-1.2.905.905 0 0 0-1.218-.362c-1.899 1.01-3.558 1.482-5.21 1.436-1.536-.027-3.153-.467-5.242-1.423a.896.896 0 0 0-.687-.027.883.883 0 0 0-.504.46.885.885 0 0 0 .437 1.179c2.323 1.063 4.162 1.552 5.964 1.583.065.002.13.002.195.002 1.91 0 3.789-.527 5.9-1.647ZM31.788 64.394c-.088-1.841.052-3.785.432-5.947a.88.88 0 0 0-.15-.664.908.908 0 0 0-1.254-.212.888.888 0 0 0-.368.575c-.401 2.28-.55 4.351-.454 6.328.086 1.814.387 3.61.916 5.489a.898.898 0 0 0 1.102.62.887.887 0 0 0 .626-1.091c-.491-1.747-.77-3.414-.85-5.099ZM74.065 34.412l-4.86-4.403.908-.98a.765.765 0 0 0-.05-1.085.783.783 0 0 0-.38-.189l-8.277-1.828a.767.767 0 0 0-.586.102.772.772 0 0 0-.342.481.782.782 0 0 0 .017.399l2.566 8.013c.128.403.565.631.978.5a.753.753 0 0 0 .351-.228l.895-.965 4.863 4.407a.784.784 0 0 0 1.099-.05l2.868-3.089a.765.765 0 0 0-.05-1.085Zm-6.535-4.874a.765.765 0 0 0 .05 1.085l4.86 4.403-1.815 1.957-4.862-4.405a.784.784 0 0 0-1.096.05l-.525.564-1.751-5.474 5.668 1.253-.53.567ZM48.237 30.532a.904.904 0 0 0-1.059.249c-.363.44-.598.844-.739 1.28-.105.33-.149.651-.132.988l.004.108c.002.06.004.12.004.18l-.002.185a.895.895 0 0 0 1.19.855.882.882 0 0 0 .61-.826l.002-.125-.01-.473a.957.957 0 0 1 .05-.353c.07-.213.204-.435.418-.697.178-.216.243-.496.178-.768a.891.891 0 0 0-.514-.603Z"/><path d="M56.33 19.99a6.769 6.769 0 0 0-1.749-2.552c-1.432-1.3-3.46-1.992-5.861-1.994l-.12-.004c-.552-.023-1.949-.077-3.505.797-.155-3.225.124-4.123.311-4.37a.877.877 0 0 0-.18-1.239.901.901 0 0 0-1.256.178c-.912 1.204-.754 4.827-.515 7.86l.007.078c.018.226.031.392.033.442 1.45 29.69-12.304 35.366-22.346 39.51-.77.317-1.52.628-2.297.962a.878.878 0 0 0-.477.49.865.865 0 0 0 .012.679.902.902 0 0 0 1.18.458c.694-.299 1.47-.62 2.27-.95 4.402-1.816 9.354-3.86 13.634-7.854-.964 3.474-1.445 6.58-1.47 9.468-.032 3.669.67 6.792 1.453 9.931a.899.899 0 0 0 1.088.65c.48-.119.775-.6.655-1.075-.785-3.144-1.432-6.028-1.403-9.493.032-3.68.836-7.686 2.535-12.61a28.38 28.38 0 0 0 3.335-5.524c.93.556 2.367 1.349 3.364 1.14 1.01-.21 2.157-.598 2.997-1.866.855-1.284 1.197-3.266 1.048-6.053-.07-1.324 1.28-2.55 2.614-3.764.487-.442.947-.861 1.359-1.303 2.436-2.614 3.834-5.851 3.839-8.883.006-1.123-.18-2.166-.555-3.108Zm-9.042 17.148c.126 2.395-.122 4.028-.76 4.99-.483.73-1.18.96-1.863 1.103-.395.085-1.66-.679-2.29-1.059 2.42-6.12 3.373-13.672 2.916-23.072-.007-.153-.021-.332-.04-.57l-.017-.233c1.415-1.16 2.778-1.106 3.324-1.083.057.002.105.004.166.004 1.945.003 3.551.532 4.645 1.53.565.514 1 1.151 1.294 1.892.292.74.439 1.567.439 2.457-.004 2.59-1.23 5.389-3.366 7.681-.366.393-.805.789-1.281 1.225-1.54 1.392-3.283 2.975-3.167 5.135ZM62.12 44.733l.91-.98a.765.765 0 0 0-.431-1.271l-8.276-1.83a.783.783 0 0 0-.586.101.756.756 0 0 0-.34.481.773.773 0 0 0 .017.397l2.566 8.014a.779.779 0 0 0 .977.5.764.764 0 0 0 .35-.229l.895-.964 4.863 4.407c.15.135.336.199.523.199a.778.778 0 0 0 .573-.249l2.869-3.09a.765.765 0 0 0-.05-1.085l-4.86-4.401Zm-1.676-.471a.765.765 0 0 0 .05 1.085l4.86 4.403-1.814 1.957-4.864-4.407a.784.784 0 0 0-1.096.05l-.525.564-1.752-5.474 5.67 1.253-.529.569Z"/><path d="M50.7 22.281c.049.077.09.152.13.229.043.083.078.164.114.244.036.086.065.169.092.258.032.104.06.205.088.34l.07.363h.04a.905.905 0 0 0 1.283.343.887.887 0 0 0 .4-.91 4.838 4.838 0 0 0-.077-.36 9.752 9.752 0 0 0-.086-.307c-.033-.102-.065-.2-.105-.301a7.475 7.475 0 0 0-.124-.293 8.884 8.884 0 0 0-.143-.284 5.47 5.47 0 0 0-.161-.274c-.049-.073-.097-.145-.147-.216a4.833 4.833 0 0 0-.435-.517.907.907 0 0 0-1.472.283.884.884 0 0 0 .185.96c.128.133.241.279.348.442ZM46.639 36.107a.907.907 0 0 0-1.107.455c-.292.6-.64 1.149-1.037 1.633l-.13.151a.886.886 0 0 0 .682 1.463c.256 0 .51-.106.687-.31a10.146 10.146 0 0 0 1.421-2.172.884.884 0 0 0-.516-1.22ZM50.053 29.64a.91.91 0 0 0 .311.055.94.94 0 0 0 .744-.381l1.295-2.21a.879.879 0 0 0-.275-1.025.9.9 0 0 0-.79-.164.887.887 0 0 0-.604.527l.258.162-.298-.073-.04.091.256.164-.296-.077.254.17-.294-.082-.046.091.25.176-.294-.089-.049.091.246.18-.292-.092.242.184-.288-.1.237.192-.287-.102.235.193-.286-.11.231.201-.281-.116-.059.091.227.204-.282-.12-.058.088.222.21-.281-.122.218.211-.277-.128.214.218-.187-.09-.069-.068-.21.272a.879.879 0 0 0-.151.784c.084.276.281.49.554.593Z"/></g><defs><clipPath id="a"><path fill="#fff" d="M0 0h84v83H0z"/></clipPath></defs></svg>