<svg width="83" height="83" fill="none" xmlns="http://www.w3.org/2000/svg"><g clip-path="url(#a)" fill="#000"><path d="M41.5 83C18.617 83 0 64.383 0 41.5S18.617 0 41.5 0 83 18.617 83 41.5 64.383 83 41.5 83Zm0-81.21C19.602 1.79 1.79 19.606 1.79 41.5S19.604 81.21 41.5 81.21c21.898 0 39.71-17.815 39.71-39.71S63.394 1.79 41.5 1.79Z"/><path d="M49.568 68.975c-1.12-.82-2.194-1.09-3.19-.82-9.67 1.19-11.265.23-12.693-1.433-.767-1.067-.728-2.685.146-5.13.421-1.402-1.067-1.925-1.627-2.124-.207-.069-.53-.185-.674-.277.037-.514.56-.782 1.97-1.249.515-.168 1.045-.344 1.526-.591a.97.97 0 0 0 .515-1.073.965.965 0 0 0-.905-.782c-1.71-.091-3.306-.643-3.642-1.004.085-.208.208-.444.338-.706.637-1.28 1.289-2.6.743-3.604-.145-.262-.506-.72-1.265-.805-1.181-.154-2.631-.89-3.107-1.58-.1-.138-.114-.213-.108-.238.092-.384 1.127-1.525 1.887-2.361 2.093-2.324 4.977-5.499 5.046-8.904.114-9.163 1.442-15.214 4.395-20.192.153-.23.307-.452.475-.668.444-.683.95-1.326 1.51-1.932.015-.023.07-.068.07-.068l-1.657-1.082s-.037.038-.054.063c-.008 0-.008.014-.014.023a23.872 23.872 0 0 0-1.994 2.63c-3.167 5.331-4.572 11.673-4.694 21.197-.054 2.66-2.654 5.53-4.54 7.615-1.303 1.442-2.162 2.393-2.347 3.266-.085.415-.091 1.05.415 1.778.845 1.212 2.708 2.086 4.196 2.362-.123.452-.507 1.22-.714 1.627-.185.375-.353.72-.483 1.05a1.808 1.808 0 0 0 .238 1.579c.384.56 1.073.95 1.818 1.234-.905.506-1.642 1.272-1.58 2.623.077 1.25 1.273 1.664 1.986 1.917.077.031.177.063.268.1-.637 1.903-1.158 4.472.33 6.517 2.393 2.808 5.522 3.275 14.548 2.156.054-.008.108-.014.153-.037.507-.145 1.127.2 1.565.515"/><path d="M36.628 32.225c-.077-.787.124-1.606.797-2.268.678-.672 1.884-.847 2.695-.548.847.262 1.482.751 1.994 1.305.496.57.884 1.212 1.086 1.986-.785-.189-1.412-.486-2.015-.747-.596-.261-1.148-.51-1.625-.656-.494-.15-.799-.176-1.264-.066-.477.127-1.01.541-1.668.994ZM36.628 36.161c.141-.764.689-1.44 1.494-1.782.803-.343 1.737-.276 2.471 0 .75.273 1.355.726 1.85 1.253.483.54.877 1.143 1.089 1.896-.77-.143-1.393-.398-1.986-.633-.587-.24-1.13-.483-1.63-.668-.505-.182-.943-.309-1.437-.344-.507-.052-1.1.064-1.851.278ZM48.231 27.261l.432.166a.986.986 0 0 0 .703-1.84l-3.13-1.2c-.034-.012-.07-.006-.104-.014a.916.916 0 0 0-.608.035c-.032.013-.067.01-.096.027-.025.013-.04.038-.064.054-.027.017-.058.023-.085.042-.036.027-.054.066-.085.1a.93.93 0 0 0-.119.136 1.115 1.115 0 0 0-.101.206c-.013.035-.04.064-.05.101l-.672 2.723a.984.984 0 1 0 1.913.473l.12-.486c1.158 2.187 2.069 5.065 1.936 7.288a.983.983 0 0 0 .926 1.041.984.984 0 0 0 1.042-.923c.153-2.546-.754-5.538-1.958-7.929ZM36.358 42.473a.972.972 0 0 1-.591-.199 13.76 13.76 0 0 1-.426-.336.986.986 0 0 1 1.264-1.513c.112.094.228.187.349.274a.986.986 0 0 1-.596 1.774ZM47.389 42.558a.985.985 0 0 0-1.357-.315c-.23.147-.494.27-.778.37a.983.983 0 0 0 .64 1.857 6.156 6.156 0 0 0 1.186-.555.984.984 0 0 0 .309-1.357Zm-5.91.146a11.84 11.84 0 0 1-.97-.239.985.985 0 0 0-.563 1.886c.377.116.763.208 1.141.284.069.015.13.015.201.015a.978.978 0 0 0 .963-.786.992.992 0 0 0-.772-1.16ZM48.565 40.394l-.068-.002a.985.985 0 0 1-.915-1.05c.01-.139.014-.28.014-.427a.986.986 0 0 1 1.972 0c0 .193-.007.38-.02.562a.989.989 0 0 1-.983.917Z"/></g><defs><clipPath id="a"><path fill="#fff" d="M0 0h83v83H0z"/></clipPath></defs></svg>